<svg width="32" height="32" viewBox="0 0 32 32" fill="none" xmlns="http://www.w3.org/2000/svg">
    <path d="M8 4C8 6 10 8 12 8C14 8 16 6 16 4" stroke="#3498db" stroke-width="2" stroke-linecap="round"/>
    <path d="M16 4C16 6 18 8 20 8C22 8 24 6 24 4" stroke="#3498db" stroke-width="2" stroke-linecap="round"/>
    <path d="M8 28C8 26 10 24 12 24C14 24 16 26 16 28" stroke="#3498db" stroke-width="2" stroke-linecap="round"/>
    <path d="M16 28C16 26 18 24 20 24C22 24 24 26 24 28" stroke="#3498db" stroke-width="2" stroke-linecap="round"/>
    <path d="M10 10L22 22" stroke="#3498db" stroke-width="2" stroke-dasharray="4 4"/>
    <path d="M22 10L10 22" stroke="#3498db" stroke-width="2" stroke-dasharray="4 4"/>
    <circle cx="12" cy="8" r="2" fill="#3498db" opacity="0.8"/>
    <circle cx="20" cy="8" r="2" fill="#3498db" opacity="0.8"/>
    <circle cx="12" cy="24" r="2" fill="#3498db" opacity="0.8"/>
    <circle cx="20" cy="24" r="2" fill="#3498db" opacity="0.8"/>
    <circle cx="16" cy="16" r="3" fill="#3498db" opacity="0.6"/>
</svg>
